<svg width="372" height="60" viewBox="0 0 372 60" fill="none" xmlns="http://www.w3.org/2000/svg">
<g clip-path="url(#clip0_10_474)">
<path fill-rule="evenodd" clip-rule="evenodd" d="M53.5648 0.501343C53.7591 0.584895 54.0366 0.594179 54.2309 0.687015C53.5463 9.29293 48.2454 13.582 38.5039 12.9321V51.1063C45.47 49.4631 49.8459 44.9513 53.1115 39.5018C53.3891 39.6039 53.6573 39.7153 53.9256 39.836C51.7979 48.7297 47.015 55.5253 38.7444 58.264C33.8995 59.6776 28.7847 59.8879 23.8407 58.8767C19.6584 58.0392 15.7392 56.2017 12.4155 53.5201C7.78989 49.8066 4.52422 44.5057 3.9784 36.726C3.81791 34.1488 4.03611 31.5619 4.62598 29.0485C5.59538 24.9244 7.49429 21.0784 10.1767 17.806C12.7132 14.7392 15.6436 12.0233 18.8913 9.72926C14.9041 8.90302 10.4265 9.20938 7.40134 10.769C4.93759 12.1353 2.85918 14.106 1.36031 16.497C1.16603 16.7848 0.832992 17.4254 0.629465 17.4254C0.425939 17.4254 0.176157 17.4254 -0.0366211 17.4254C0.832992 11.716 3.1828 7.54761 7.01279 4.76252C10.8428 1.97744 16.1992 0.547761 22.7398 0.984091C30.2333 1.47612 36.4871 3.76918 43.5088 4.79037C44.9952 5.06133 46.5132 5.11138 48.0141 4.93891C50.8542 4.51187 52.2049 2.71084 53.4723 0.594179C53.4723 0.594179 53.4723 0.501343 53.5371 0.501343H53.5648ZM12.7208 27.3681C12.0269 36.1319 15.0521 42.1105 19.5204 45.9911C20.3961 45.2449 21.1 44.3168 21.5834 43.271C22.0804 41.9404 22.3007 40.5218 22.231 39.1026V10.212C21.8828 10.1803 21.5368 10.1276 21.1949 10.0542C16.9671 14.2132 13.3591 19.5142 12.7208 27.331V27.3681ZM31.0012 11.7345V23.042C31.0012 26.839 31.2324 30.6638 30.6404 33.9873C29.4932 40.4209 25.4042 43.8187 21.4354 47.3465C24.7751 50.2987 29.9743 51.9883 36.4686 51.4591V12.8021C34.6184 12.4494 32.8699 12.0502 31.0289 11.716C31.0289 11.6602 31.0289 11.716 31.0289 11.7717" fill="white"/>
<path fill-rule="evenodd" clip-rule="evenodd" d="M62.0665 3.02642C62.7401 2.96086 63.4158 3.1274 63.9825 3.49863C64.5491 3.86985 64.973 4.42364 65.1842 5.06881C66.1093 7.57539 65.5172 11.5673 63.4264 12.4957C62.6954 12.7814 61.8928 12.8265 61.1346 12.6246C60.3763 12.4227 59.7016 11.9842 59.2079 11.3724C58.6148 10.3834 58.3312 9.23854 58.3938 8.08599C58.3938 5.3009 59.1246 3.0357 62.0387 3.02642" fill="white"/>
<path fill-rule="evenodd" clip-rule="evenodd" d="M75.2957 17.9266C75.9895 16.7569 76.5724 15.4665 77.7565 14.7888C78.3068 14.5322 78.9157 14.4287 79.5195 14.4891C80.1233 14.5495 80.6998 14.7717 81.1887 15.1323C82.0032 15.8271 82.638 16.7094 83.039 17.7038C84.7782 21.6308 85.1482 28.315 83.9641 33.2817C83.409 35.6491 82.2711 37.8771 80.5596 38.7405C79.93 39.0422 79.2257 39.1512 78.5347 39.0538C77.8437 38.9564 77.1966 38.6569 76.6741 38.1928C75.8126 37.1817 75.2374 35.9569 75.0089 34.6464C74.9349 36.0668 75.0089 37.6172 75.0089 39.0654C72.5329 38.6876 70.037 38.4551 67.5339 38.3692V37.2458H68.9216C68.9956 26.6904 68.9216 16.0049 68.9216 5.40305H67.5339V4.30758C70.0581 4.22081 72.5737 3.9665 75.0644 3.54633C75.3327 3.54633 75.2957 3.54633 75.3049 3.8434C75.4437 6.1086 75.3049 8.48521 75.3049 10.6669L75.2957 17.9266ZM75.2957 21.6401C75.2217 23.209 75.2957 25.0008 75.2957 26.9782C75.2957 28.7235 75.2957 30.5524 75.2957 32.2791C75.3124 33.0871 75.4022 33.8919 75.564 34.6836C75.7213 35.3613 76.082 36.2339 76.7481 36.1782C77.4142 36.1225 77.5067 35.1478 77.5992 34.4422C77.8144 31.8859 77.867 29.3184 77.7565 26.7554V21.5565C77.8081 20.7335 77.7926 19.9076 77.7103 19.0871C77.5807 18.1587 77.3865 17.3603 76.6556 17.4996C75.4715 17.7317 75.4345 20.2847 75.379 21.6401" fill="white"/>
<path fill-rule="evenodd" clip-rule="evenodd" d="M200.4 13.9904C200.474 16.8498 200.538 19.867 200.548 22.6799H199.965C199.271 20.3033 198.411 17.7225 196.69 16.1814C195.83 15.4108 193.859 14.566 193.258 16.0607C193.008 16.6734 192.944 17.3466 193.074 17.9957C193.204 18.6448 193.522 19.2409 193.989 19.7091C194.345 19.9902 194.719 20.2476 195.108 20.4797C196.254 21.1878 197.332 22.0022 198.327 22.912C199.648 24.2676 200.537 25.9868 200.881 27.8509C201.27 30.1334 201.238 32.4681 200.788 34.7393C200.353 36.6889 199.41 38.527 197.541 39.149C197.003 39.3461 196.439 39.4619 195.867 39.4925C195.153 39.4443 194.468 39.1896 193.896 38.7591C193.323 38.4156 192.777 38.1093 192.231 37.7286C191.676 38.1093 191.121 38.592 190.529 39.0655C190.368 39.2463 190.163 39.3812 189.934 39.4562C189.705 39.5312 189.46 39.5438 189.224 39.4925C189.224 36.3825 189.048 33.2075 189.067 30.1346H189.493C189.835 31.063 190.075 31.9914 190.418 32.8455C191.059 34.501 192.091 35.9758 193.424 37.1438C193.767 37.425 194.143 37.662 194.544 37.8493C194.998 38.0768 195.497 38.2004 196.005 38.2114C196.425 38.1343 196.806 37.9138 197.083 37.5872C197.359 37.2607 197.515 36.8481 197.523 36.4197C197.717 34.2473 196.468 33.4675 195.182 32.5762C194.257 31.9542 193.387 31.2673 192.481 30.6267C192.161 30.4405 191.852 30.2359 191.556 30.014C190.943 29.4049 190.44 28.6953 190.066 27.9159C188.891 25.6135 188.688 21.6773 189.483 18.7437C189.964 16.9891 190.778 15.1695 192.314 14.4082C193.267 14.0042 194.332 13.9516 195.321 14.2597C196.156 14.547 196.945 14.9568 197.661 15.4758C198.374 14.9931 199.04 14.4546 199.752 13.9533L200.4 13.9904Z" fill="white"/>
<path fill-rule="evenodd" clip-rule="evenodd" d="M143.495 37.4872C143.982 37.5156 144.47 37.5156 144.957 37.4872V38.6477H136.205V37.5151H137.131V21.9465C137.176 21.0961 137.176 20.2439 137.131 19.3935C137.066 18.6508 136.872 17.7224 136.205 17.6853C135.539 17.6482 135.16 18.5301 134.994 19.1428C134.792 19.8904 134.659 20.6548 134.596 21.4266C134.457 23.1255 134.596 25.0565 134.596 26.7554V37.4872C134.904 37.5131 135.213 37.5131 135.521 37.4872V38.6477H126.741V37.5151H128.083V15.9771H126.741V14.696C129.461 14.6403 131.82 14.2132 134.549 14.1761C134.623 15.6615 134.549 17.2768 134.549 18.8179C135.382 16.8219 136.4 14.2875 138.861 14.0925C142.015 13.8512 142.913 16.5341 143.264 19.2449C143.457 21.2191 143.528 23.2034 143.477 25.1865L143.495 37.4872Z" fill="white"/>
<path fill-rule="evenodd" clip-rule="evenodd" d="M161.202 28.2871H152.645C152.645 31.1465 152.543 34.5164 153.57 36.4567C153.697 36.735 153.886 36.9807 154.121 37.1752C154.357 37.3698 154.633 37.5082 154.93 37.58C155.138 37.6572 155.351 37.7193 155.568 37.7657C156.91 37.8493 158.057 36.661 158.695 35.779C159.417 34.7376 159.99 33.6002 160.397 32.3998C160.573 32.6597 160.897 32.799 160.915 33.0682C160.858 33.3041 160.764 33.5296 160.638 33.7366C159.389 36.5217 157.927 39.5296 154.116 39.5296C152.545 39.5526 151.014 39.0349 149.777 38.0628C147.695 36.3639 146.567 33.486 146.132 30.0789C145.689 26.6204 146.005 23.1065 147.057 19.7834C148.038 17.0818 149.592 14.3246 153.107 14.0832C153.865 14.0218 154.627 14.1205 155.344 14.3732C156.061 14.6259 156.717 15.0268 157.27 15.55C158.232 16.4976 158.996 17.6273 159.519 18.8736C160.764 21.8492 161.345 25.0622 161.221 28.2871H161.202ZM154.958 17.6853C154.958 16.7012 154.8 15.6057 154.171 15.3087C153.033 14.7609 152.821 16.5898 152.737 17.5831C152.515 20.5725 152.737 24.2673 152.654 27.0896H154.958C154.856 24.1374 155.096 20.7674 154.958 17.6853Z" fill="white"/>
<path fill-rule="evenodd" clip-rule="evenodd" d="M48.6431 14.5103V19.4121C49.5682 17.2675 50.4101 14.3618 53.4722 14.696C53.9834 14.7692 54.4607 14.9957 54.8414 15.3458C56.8581 17.2583 57.0894 23.2091 55.0819 25.205C54.8561 25.4342 54.5841 25.6124 54.2842 25.7276C53.9843 25.8429 53.6633 25.8926 53.3427 25.8735C52.9589 25.8208 52.5894 25.6919 52.2558 25.4942C51.9222 25.2965 51.6313 25.0341 51.3999 24.7223C50.6032 23.4367 50.2219 21.9354 50.3083 20.424C50.3083 19.9969 50.4101 19.4956 50.4656 18.9943C50.5211 18.493 50.6598 18.0102 50.2528 17.7781C49.6977 18.1031 49.5497 18.8643 49.4017 19.5142C48.9925 21.9297 48.8406 24.3819 48.9484 26.8297V37.218C49.5219 37.283 50.225 37.218 50.8634 37.218V38.3413H40.9553V37.2459H42.2967C42.3615 30.3203 42.2967 23.3205 42.2967 16.3113H40.9553V15.0952C43.5087 14.9002 46.062 14.6867 48.6431 14.5103Z" fill="white"/>
<path fill-rule="evenodd" clip-rule="evenodd" d="M65.3137 14.5103C65.4525 21.9372 65.3137 29.6519 65.3692 37.218C65.8133 37.283 66.3776 37.218 66.8586 37.218V38.3413H57.3577V37.2459H58.6898C58.7638 30.3389 58.6898 23.3205 58.6898 16.3392H57.3577V15.0952C60.133 15.0952 62.6586 14.7331 65.2859 14.5103" fill="white"/>
<path fill-rule="evenodd" clip-rule="evenodd" d="M96.1016 16.3392H94.6399V15.0952C97.4153 15.0952 99.7373 14.6124 102.503 14.6124V37.2459H104.03V38.3692C101.462 38.4314 98.9027 38.6764 96.3699 39.1026C96.3051 37.6265 96.3699 36.0204 96.3699 34.5072C95.3522 36.5775 94.3901 38.8334 91.7443 39.0655C88.7006 39.344 87.831 36.9302 87.3777 34.3494C87.0044 31.4193 86.8806 28.4626 87.0077 25.5114V16.3392H85.657V15.0952C88.1271 15.0116 90.9024 14.8724 93.2152 14.5474C93.4095 14.5474 93.4835 14.3803 93.5205 14.7517C93.65 16.3299 93.5205 18.363 93.5205 19.8484V33.4953C93.5205 34.5815 93.465 36.0019 94.7047 35.7512C95.7408 35.5377 95.9998 33.124 96.0646 31.9078C96.1756 30.0511 96.0646 28.1944 96.0646 26.7275L96.1016 16.3392Z" fill="white"/>
<path fill-rule="evenodd" clip-rule="evenodd" d="M121.875 37.2459H123.337V38.3692H114.558V37.2459H115.483C115.538 32.4927 115.483 27.2196 115.483 22.2157C115.483 21.4823 115.483 20.5632 115.427 19.7834C115.372 19.0036 115.224 18.0474 114.576 17.9917C113.929 17.936 113.512 18.7715 113.337 19.3564C112.735 21.3523 112.911 24.2303 112.911 26.7833V37.2459H113.836V38.3692H105.001V37.2459H106.389V16.3392H105.057V15.0952C107.832 15.0488 110.136 14.6124 112.92 14.6124V19.0871C113.744 17.0819 114.687 14.9466 117.019 14.5474C117.93 14.3858 118.869 14.5676 119.655 15.058C120.802 15.8007 121.348 17.5089 121.635 19.2078C121.876 21.135 121.965 23.0781 121.903 25.0194V37.2459" fill="white"/>
<path fill-rule="evenodd" clip-rule="evenodd" d="M162.35 14.696H171.092V15.9771H170.222C171.305 21.3431 172.433 26.6626 173.562 31.9728C173.923 30.246 174.274 28.5286 174.626 26.7554C174.692 26.5173 174.745 26.2755 174.783 26.0313C174.725 25.6097 174.632 25.1937 174.506 24.7873C173.923 21.8629 173.349 18.855 172.776 15.9771H171.61V14.696H180.695V15.9771H179.205C180.232 21.1667 181.314 26.3098 182.36 31.49C183.072 28.2129 183.822 24.4623 184.515 20.9717C184.834 19.7387 184.978 18.4666 184.941 17.1933C184.885 16.432 184.654 15.8564 183.729 15.9771V14.696H187.855V15.9771C187.643 15.9822 187.435 16.0329 187.244 16.1257C185.903 16.8219 185.607 19.4678 185.274 21.1574C184.118 26.9689 182.943 33.0126 181.777 38.6756H177.41C176.664 35.1725 175.936 31.6571 175.227 28.1294C174.432 31.5922 173.756 35.1664 173.007 38.6756H168.381C166.818 31.0908 165.19 23.5618 163.617 15.9771H162.312V14.7888C162.312 14.7888 162.312 14.7053 162.312 14.696" fill="white"/>
<path fill-rule="evenodd" clip-rule="evenodd" d="M211.936 27.4052V29.1691C211.816 29.1691 211.677 29.0763 211.575 29.0206C211.177 28.7583 210.717 28.6056 210.241 28.578C209.765 28.5503 209.29 28.6485 208.864 28.8627C206.774 30.2738 206.746 36.5681 209.928 36.6053C210.648 36.5773 211.345 36.3421 211.936 35.9276V37.6729C211.264 38.0641 210.493 38.2521 209.717 38.2143C208.94 38.1764 208.191 37.9142 207.56 37.4594C205.506 35.6026 205.58 30.1996 207.412 28.0736C207.952 27.4402 208.707 27.03 209.531 26.9225C210.363 26.8512 211.198 27.0221 211.936 27.4145" fill="white"/>
<path fill-rule="evenodd" clip-rule="evenodd" d="M216.09 27.0989C216.589 27.0669 217.089 27.1494 217.551 27.3402C220.66 28.7606 220.503 36.726 217.394 38.2206C216.873 38.4406 216.303 38.5161 215.743 38.4393C215.184 38.3626 214.655 38.1364 214.212 37.7843C212.306 36.1782 212.232 30.7195 213.758 28.5007C214.009 28.0987 214.351 27.7621 214.756 27.5184C215.161 27.2747 215.618 27.131 216.09 27.0989ZM215.451 28.8628C213.536 29.8654 213.425 36.0204 215.636 36.791C216.045 36.9049 216.477 36.9049 216.885 36.791C218.569 36.0947 218.921 31.6386 217.857 29.754C217.67 29.4153 217.382 29.1437 217.034 28.9773C216.685 28.8108 216.294 28.7578 215.914 28.8256C215.756 28.8502 215.601 28.8906 215.451 28.9463" fill="white"/>
<path fill-rule="evenodd" clip-rule="evenodd" d="M226.331 29.4105C226.588 28.7087 226.967 28.0581 227.45 27.4888C227.65 27.3213 227.885 27.2006 228.138 27.1355C228.39 27.0703 228.654 27.0624 228.91 27.1121C229.166 27.1619 229.407 27.2681 229.617 27.4232C229.827 27.5783 230 27.7783 230.124 28.0087C230.679 29.1599 230.485 31.1744 230.485 32.9754V38.2857H228.903V30.636C228.903 29.8747 228.903 28.705 228.301 28.6771C227.7 28.6493 227.422 29.4198 227.237 29.7726C227.052 30.1254 227.006 30.2832 226.904 30.506C226.765 30.7364 226.653 30.9826 226.571 31.2394C226.525 31.8264 226.525 32.4162 226.571 33.0033V38.3135H224.952V30.636C224.952 29.8468 225.017 28.705 224.379 28.6771C223.74 28.6493 223.222 29.9861 222.982 30.5338C222.85 30.7681 222.738 31.0135 222.649 31.2672C222.602 31.8543 222.602 32.4441 222.649 33.0311V38.3414H221.039V27.2753H222.38C222.38 27.953 222.445 28.5936 222.436 29.2898C223 28.4172 223.25 27.1546 224.536 27.071C225.822 26.9875 226.321 27.9994 226.331 29.4105Z" fill="white"/>
<path fill-rule="evenodd" clip-rule="evenodd" d="M203.129 33.8295C205.358 33.421 205.534 37.543 203.767 38.0071C202.629 38.3042 201.917 37.1902 201.824 36.2618C201.773 35.8866 201.804 35.5047 201.914 35.1424C202.024 34.7802 202.211 34.4463 202.462 34.1637C202.649 33.9919 202.88 33.8761 203.129 33.8295Z" fill="white"/>
<path d="M60.1793 47.6807L58.329 42.259C58.3845 43.0667 58.4031 43.8187 58.4031 44.5242V47.6807H57.3577V41.1821H58.8471L60.6418 46.3438L62.4921 41.1821H63.9908V47.6807H62.9731V44.4685C62.9731 44.1529 62.9731 43.7258 62.9731 43.206C62.9731 42.6861 62.9731 42.3797 62.9731 42.2776L61.0304 47.6899L60.1793 47.6807Z" fill="white"/>
<path d="M68.6996 47.6807L68.4591 46.9937C68.2763 47.2543 68.0314 47.4649 67.7468 47.6064C67.4539 47.728 67.1384 47.785 66.8217 47.7735C66.613 47.7837 66.4045 47.7511 66.2088 47.6777C66.0132 47.6043 65.8345 47.4916 65.6838 47.3465C65.5421 47.2015 65.4326 47.0282 65.3624 46.8378C65.2923 46.6474 65.2631 46.4442 65.2767 46.2417C65.2635 46.0172 65.3085 45.7932 65.4075 45.5914C65.5064 45.3896 65.6558 45.217 65.841 45.0905C66.3588 44.8074 66.9453 44.6755 67.534 44.7099H68.3759V44.45C68.3941 44.1965 68.3183 43.9452 68.1631 43.7444C68.0703 43.6616 67.9619 43.5984 67.8443 43.5585C67.7267 43.5186 67.6023 43.5029 67.4785 43.5123C67.2336 43.5115 66.9902 43.5491 66.7569 43.6237C66.5292 43.695 66.3067 43.7819 66.0908 43.8837L65.7578 43.1317C66.0333 42.9904 66.3255 42.8844 66.6274 42.816C66.9242 42.7434 67.2285 42.7061 67.534 42.7046C68.0378 42.6672 68.5379 42.8158 68.9402 43.1224C69.1116 43.2856 69.244 43.4856 69.3273 43.7075C69.4106 43.9294 69.4427 44.1674 69.4212 44.4035V47.7085L68.6996 47.6807ZM67.1547 46.9751C67.492 46.9932 67.8234 46.8801 68.0798 46.6595C68.2021 46.54 68.2963 46.3947 68.3555 46.2341C68.4147 46.0735 68.4375 45.9017 68.4221 45.7311V45.3041H67.793C67.4226 45.2924 67.0557 45.3788 66.7291 45.5547C66.619 45.6281 66.5301 45.7295 66.4716 45.8485C66.4131 45.9676 66.3871 46.1 66.3961 46.2324C66.3909 46.3251 66.4056 46.4177 66.4391 46.5042C66.4726 46.5907 66.5242 46.6689 66.5904 46.7337C66.7542 46.8676 66.9625 46.9339 67.1732 46.9194" fill="white"/>
<path d="M72.7239 46.9287C72.9816 46.9295 73.2377 46.8887 73.4825 46.808V47.5971C73.3391 47.653 73.1903 47.6934 73.0384 47.7178C72.8526 47.7551 72.6636 47.7738 72.4741 47.7735C71.4842 47.7735 70.9939 47.2536 70.9939 46.2045V43.5587H70.3093V43.0945L71.0217 42.7139L71.3825 41.6741H72.0208V42.7696H73.4177V43.5587H72.0393V46.186C72.0311 46.288 72.0433 46.3906 72.0751 46.4878C72.1068 46.585 72.1576 46.6749 72.2243 46.7523C72.3639 46.8701 72.5415 46.9328 72.7239 46.9287Z" fill="white"/>
<path d="M77.5254 47.6807L77.3218 46.9937C77.1358 47.2549 76.8878 47.4655 76.6002 47.6064C76.3081 47.7303 75.992 47.7874 75.6751 47.7735C75.4636 47.7846 75.252 47.7525 75.0532 47.6791C74.8544 47.6057 74.6726 47.4925 74.5187 47.3465C74.3785 47.2005 74.2699 47.027 74.1998 46.8369C74.1298 46.6467 74.0998 46.4441 74.1117 46.2417C74.1003 46.0175 74.1461 45.794 74.2449 45.5926C74.3436 45.3911 74.492 45.2183 74.676 45.0905C75.196 44.7925 75.7892 44.6477 76.3875 44.6728H77.2386V44.4128C77.2579 44.1577 77.1783 43.905 77.0165 43.7073C76.9249 43.6256 76.818 43.5631 76.7021 43.5232C76.5862 43.4834 76.4635 43.4671 76.3412 43.4752C76.0964 43.4744 75.8529 43.512 75.6196 43.5866C75.3919 43.6579 75.1694 43.7448 74.9535 43.8465L74.6205 43.0946C74.8956 42.9522 75.1879 42.8461 75.4901 42.7789C75.7929 42.7047 76.1035 42.6673 76.4152 42.6675C76.922 42.6287 77.4255 42.7773 77.8306 43.0853C77.9988 43.2505 78.1284 43.4511 78.2099 43.6727C78.2915 43.8942 78.3231 44.1311 78.3025 44.3664V47.6714L77.5254 47.6807ZM75.9712 46.9751C76.3081 46.9903 76.6384 46.8777 76.8963 46.6595C77.0186 46.54 77.1127 46.3947 77.1719 46.2341C77.2312 46.0735 77.2539 45.9016 77.2386 45.7311V45.3041H76.6095C76.2361 45.2925 75.8662 45.3789 75.5364 45.5547C75.4262 45.6281 75.3373 45.7295 75.2789 45.8485C75.2204 45.9676 75.1943 46.1 75.2033 46.2324C75.1982 46.3251 75.2128 46.4177 75.2463 46.5042C75.2799 46.5907 75.3314 46.6689 75.3976 46.7337C75.5614 46.8676 75.7697 46.9339 75.9804 46.9194" fill="white"/>
<path d="M82.188 47.6807V41.1914H83.2426V46.7709H85.981V47.6807H82.188Z" fill="white"/>
<path d="M91.3281 45.2205C91.3645 45.8944 91.1465 46.5574 90.7175 47.0772C90.4982 47.3078 90.2315 47.4879 89.936 47.6049C89.6405 47.7219 89.3232 47.7731 89.006 47.7549C88.5806 47.7655 88.1607 47.6561 87.7941 47.4393C87.4344 47.2207 87.1503 46.8967 86.98 46.5109C86.7848 46.0895 86.6868 45.6294 86.6932 45.1648C86.654 44.4905 86.8723 43.8265 87.3038 43.308C87.5311 43.09 87.8022 42.9233 88.099 42.8193C88.3958 42.7152 88.7114 42.6761 89.0245 42.7046C89.3375 42.6874 89.6504 42.7391 89.9412 42.8562C90.2321 42.9733 90.4939 43.1528 90.7082 43.3823C91.143 43.8994 91.3647 44.5635 91.3281 45.239V45.2205ZM87.7664 45.239C87.7664 46.3716 88.1827 46.9379 89.0245 46.9379C89.8664 46.9379 90.2642 46.3716 90.2642 45.239C90.2642 44.1064 89.8479 43.5494 89.0153 43.5494C88.837 43.5384 88.6587 43.5725 88.4971 43.6488C88.3354 43.725 88.1954 43.8409 88.0902 43.9858C87.8722 44.3658 87.7693 44.8013 87.7941 45.239" fill="white"/>
<path d="M93.5299 45.0905L94.122 44.3478L95.6022 42.7696H96.7956L94.8251 44.877L96.9251 47.6806H95.7039L94.1312 45.5268L93.5576 46.0003V47.6806H92.5308V40.7736H93.5576V44.1436L93.5021 45.0905H93.5299Z" fill="white"/>
<path d="M100.773 47.6807L100.57 46.9937C100.387 47.2543 100.142 47.4649 99.8575 47.6064C99.5646 47.728 99.2491 47.785 98.9324 47.7735C98.5196 47.7984 98.1138 47.6582 97.8037 47.3836C97.6652 47.2369 97.5583 47.063 97.4898 46.8729C97.4214 46.6828 97.3928 46.4806 97.4059 46.2788C97.3926 46.0553 97.4367 45.8322 97.5338 45.6306C97.631 45.4291 97.7781 45.2559 97.961 45.1277C98.4844 44.8298 99.0805 44.6851 99.6817 44.7099H100.524V44.45C100.543 44.1949 100.463 43.9421 100.302 43.7444C100.21 43.6628 100.103 43.6002 99.9871 43.5604C99.8712 43.5205 99.7485 43.5042 99.6262 43.5123C99.3814 43.5115 99.1379 43.5491 98.9046 43.6237C98.677 43.695 98.4544 43.7819 98.2385 43.8837L97.9055 43.1317C98.1806 42.9893 98.4729 42.8832 98.7751 42.816C99.0779 42.742 99.3885 42.7046 99.7002 42.7046C100.204 42.6672 100.704 42.8158 101.106 43.1224C101.275 43.2876 101.404 43.4883 101.486 43.7098C101.567 43.9313 101.599 44.1683 101.578 44.4036V47.7085L100.773 47.6807ZM99.2192 46.9751C99.5561 46.9904 99.8864 46.8777 100.144 46.6595C100.267 46.54 100.361 46.3947 100.42 46.2341C100.479 46.0735 100.502 45.9017 100.487 45.7311V45.3041H99.8575C99.4843 45.2938 99.1147 45.3801 98.7844 45.5547C98.6742 45.6281 98.5854 45.7295 98.5269 45.8485C98.4684 45.9676 98.4423 46.1 98.4513 46.2324C98.4462 46.3251 98.4608 46.4177 98.4943 46.5042C98.5279 46.5907 98.5794 46.6689 98.6456 46.7337C98.8094 46.8676 99.0177 46.9339 99.2284 46.9194" fill="white"/>
<path d="M104.011 40.7736H102.966V47.6806H104.011V40.7736Z" fill="white"/>
<path d="M110.765 47.6807L108.914 42.259C108.914 43.0667 108.988 43.8187 108.988 44.5242V47.6807H108.063V41.1821H109.553L111.403 46.3438L113.253 41.1821H114.743V47.6807H113.725V44.4685C113.725 44.1529 113.725 43.7258 113.725 43.206C113.725 42.6861 113.725 42.3797 113.725 42.2776L111.782 47.6899L110.765 47.6807Z" fill="white"/>
<path d="M118.36 47.7735C118.031 47.7924 117.702 47.7428 117.393 47.6277C117.084 47.5127 116.802 47.3347 116.565 47.105C116.342 46.8532 116.171 46.5594 116.061 46.2408C115.951 45.9221 115.906 45.5848 115.927 45.2483C115.895 44.578 116.105 43.9187 116.519 43.3916C116.933 42.9646 117.496 42.7154 118.09 42.6964C118.683 42.6773 119.261 42.8899 119.701 43.2895C120.091 43.7374 120.29 44.3206 120.256 44.9141V45.4897H117C116.985 45.8925 117.12 46.2866 117.379 46.5944C117.515 46.7249 117.677 46.826 117.853 46.8914C118.03 46.9569 118.218 46.9854 118.406 46.9751C118.677 46.9768 118.947 46.9488 119.211 46.8915C119.487 46.8257 119.756 46.7356 120.016 46.6223V47.4671C119.771 47.584 119.513 47.6713 119.248 47.727C118.943 47.7802 118.633 47.8051 118.323 47.8013L118.36 47.7735ZM118.129 43.503C117.981 43.4957 117.834 43.5201 117.697 43.5746C117.56 43.629 117.436 43.7122 117.333 43.8186C117.114 44.0788 116.99 44.4064 116.981 44.747H119.202C119.219 44.4116 119.114 44.0814 118.906 43.8186C118.806 43.7144 118.685 43.633 118.551 43.5801C118.416 43.5272 118.273 43.5041 118.129 43.5123" fill="white"/>
<path d="M125.752 47.6806H124.706V44.6635C124.731 44.3633 124.649 44.0639 124.475 43.8187C124.386 43.7167 124.274 43.6374 124.149 43.5874C124.023 43.5373 123.888 43.518 123.753 43.5309C123.58 43.5206 123.406 43.5504 123.246 43.618C123.085 43.6856 122.942 43.7891 122.828 43.9208C122.59 44.3166 122.483 44.7783 122.523 45.239V47.6806H121.478V42.7696H122.292L122.44 43.4102H122.495C122.648 43.173 122.867 42.9858 123.124 42.8717C123.414 42.7386 123.731 42.6751 124.049 42.686C124.291 42.6533 124.536 42.6772 124.767 42.756C124.997 42.8348 125.207 42.9662 125.378 43.1399C125.549 43.3136 125.678 43.5249 125.754 43.757C125.83 43.9892 125.852 44.2359 125.816 44.4778L125.752 47.6806Z" fill="white"/>
<path d="M126.742 49.8716C126.478 49.8793 126.215 49.8416 125.965 49.7601V48.9339C126.165 48.9813 126.37 49.0062 126.575 49.0082C127.019 49.0082 127.241 48.7575 127.241 48.2562V42.7696H128.287V48.3398C128.311 48.5484 128.287 48.7598 128.218 48.958C128.149 49.1562 128.035 49.3359 127.886 49.4836C127.737 49.6312 127.557 49.7429 127.359 49.8101C127.16 49.8773 126.949 49.8983 126.742 49.8716ZM127.186 41.5163C127.18 41.4374 127.19 41.3581 127.216 41.2832C127.241 41.2082 127.281 41.1391 127.334 41.08C127.455 40.9772 127.61 40.9242 127.769 40.9314C127.924 40.9247 128.076 40.9778 128.194 41.08C128.248 41.1384 128.29 41.2071 128.317 41.2821C128.344 41.3571 128.356 41.4367 128.351 41.5163C128.355 41.593 128.343 41.6696 128.316 41.7414C128.289 41.8132 128.247 41.8788 128.194 41.9341C128.138 41.988 128.071 42.0299 127.998 42.057C127.924 42.0841 127.846 42.096 127.769 42.0919C127.689 42.0962 127.61 42.0844 127.535 42.0573C127.46 42.0302 127.392 41.9883 127.334 41.9341C127.282 41.878 127.243 41.8121 127.217 41.7403C127.192 41.6686 127.181 41.5924 127.186 41.5163Z" fill="white"/>
<path d="M132.792 47.6806L132.579 46.9936C132.398 47.2559 132.153 47.4669 131.867 47.6064C131.574 47.7285 131.258 47.7855 130.942 47.7735C130.529 47.7984 130.123 47.6582 129.813 47.3836C129.673 47.2376 129.564 47.0641 129.494 46.874C129.424 46.6838 129.394 46.4812 129.406 46.2788C129.393 46.0543 129.438 45.8303 129.537 45.6285C129.636 45.4267 129.785 45.2541 129.97 45.1276C130.49 44.8281 131.083 44.6832 131.682 44.7099H132.523V44.4499C132.546 44.196 132.47 43.943 132.311 43.7444C132.218 43.6616 132.11 43.5984 131.992 43.5585C131.874 43.5186 131.75 43.5029 131.626 43.5123C131.381 43.5115 131.138 43.5491 130.905 43.6237C130.677 43.6966 130.455 43.7834 130.238 43.8836L129.905 43.1317C130.181 42.9904 130.473 42.8843 130.775 42.816C131.078 42.7431 131.389 42.7057 131.7 42.7046C132.207 42.6692 132.709 42.8174 133.116 43.1224C133.284 43.2876 133.413 43.4882 133.495 43.7098C133.576 43.9313 133.608 44.1682 133.587 44.4035V47.7085L132.792 47.6806ZM131.238 46.9751C131.575 46.9941 131.907 46.881 132.163 46.6594C132.285 46.54 132.379 46.3947 132.438 46.2341C132.498 46.0735 132.52 45.9016 132.505 45.7311V45.304H131.885C131.512 45.2924 131.142 45.3788 130.812 45.5547C130.702 45.6281 130.613 45.7295 130.555 45.8485C130.496 45.9675 130.47 46.1 130.479 46.2324C130.474 46.325 130.488 46.4177 130.522 46.5042C130.556 46.5906 130.607 46.6689 130.673 46.7337C130.837 46.8675 131.045 46.9339 131.256 46.9194" fill="white"/>
<path d="M139.286 47.6807H138.25V44.6635C138.271 44.3638 138.189 44.0659 138.019 43.8187C137.929 43.7179 137.817 43.6394 137.692 43.5895C137.567 43.5395 137.432 43.5195 137.297 43.5309C137.124 43.522 136.951 43.5524 136.79 43.6199C136.63 43.6874 136.487 43.7903 136.372 43.9208C136.134 44.3167 136.027 44.7783 136.067 45.2391V47.6807H135.031V42.7696H135.845L135.993 43.4102C136.142 43.1733 136.358 42.986 136.613 42.8718C136.903 42.74 137.219 42.6764 137.538 42.6861C137.779 42.653 138.024 42.6767 138.255 42.7555C138.485 42.8342 138.694 42.9658 138.864 43.1398C139.035 43.3138 139.163 43.5253 139.238 43.7576C139.313 43.9899 139.332 44.2365 139.296 44.4778L139.286 47.6807Z" fill="white"/>
<path d="M144.874 42.7696V43.3452L144.041 43.503C144.125 43.6181 144.187 43.7469 144.226 43.8837C144.275 44.0368 144.3 44.1964 144.3 44.3571C144.311 44.5831 144.269 44.8085 144.179 45.0161C144.09 45.2236 143.954 45.4079 143.782 45.5547C143.367 45.8646 142.856 46.0189 142.339 45.991C142.198 46.006 142.055 46.006 141.913 45.991C141.821 46.0257 141.739 46.0829 141.675 46.1575C141.61 46.2321 141.565 46.3216 141.543 46.4181C141.542 46.4707 141.557 46.5225 141.585 46.5671C141.613 46.6116 141.653 46.647 141.701 46.6687C141.884 46.7379 142.079 46.7664 142.274 46.7523H143.135C143.574 46.7193 144.01 46.8444 144.365 47.1051C144.507 47.2265 144.619 47.3796 144.691 47.5521C144.763 47.7246 144.794 47.9117 144.781 48.0984C144.79 48.3548 144.731 48.6089 144.611 48.8353C144.491 49.0617 144.313 49.2526 144.097 49.3888C143.493 49.7256 142.807 49.8834 142.117 49.8437C141.584 49.8772 141.052 49.7512 140.591 49.4817C140.421 49.375 140.283 49.2251 140.191 49.0473C140.098 48.8695 140.054 48.6702 140.063 48.4698C140.055 48.1897 140.155 47.9173 140.341 47.7085C140.562 47.491 140.842 47.3426 141.146 47.2815C141.005 47.2232 140.885 47.1227 140.803 46.9937C140.715 46.8757 140.667 46.7327 140.665 46.5852C140.661 46.4139 140.717 46.2466 140.822 46.1117C140.955 45.9638 141.111 45.8384 141.284 45.7404C141.027 45.6302 140.81 45.4419 140.665 45.2019C140.502 44.9404 140.419 44.6374 140.424 44.3293C140.41 44.0982 140.448 43.8669 140.536 43.6529C140.624 43.4389 140.76 43.248 140.933 43.0945C141.336 42.7736 141.844 42.6148 142.358 42.6489C142.502 42.6401 142.648 42.6401 142.792 42.6489L143.144 42.7046L144.874 42.7696ZM141.025 48.4512C141.024 48.5575 141.052 48.6621 141.106 48.7537C141.16 48.8453 141.237 48.9205 141.331 48.9711C141.594 49.1044 141.888 49.1653 142.182 49.1475C142.618 49.1732 143.053 49.0903 143.449 48.9061C143.571 48.8465 143.675 48.7544 143.748 48.6398C143.822 48.5251 143.862 48.3925 143.865 48.2562C143.873 48.1663 143.856 48.076 143.815 47.9956C143.774 47.9152 143.711 47.8479 143.634 47.8013C143.366 47.6858 143.074 47.638 142.783 47.6621H141.997C141.745 47.6488 141.496 47.7244 141.294 47.8756C141.207 47.9433 141.137 48.0308 141.09 48.1309C141.044 48.231 141.021 48.3408 141.025 48.4512ZM141.469 44.3571C141.453 44.6179 141.539 44.8747 141.71 45.072C141.8 45.1569 141.906 45.2229 142.022 45.2659C142.138 45.309 142.262 45.3283 142.385 45.3226C142.987 45.3226 143.31 44.9977 143.31 44.3943C143.328 44.1308 143.249 43.8701 143.088 43.6608C143.001 43.5691 142.894 43.4982 142.775 43.4533C142.657 43.4083 142.53 43.3904 142.404 43.4009C142.278 43.3917 142.151 43.4102 142.033 43.4551C141.915 43.5 141.808 43.5702 141.719 43.6608C141.554 43.8717 141.472 44.1359 141.488 44.4035" fill="white"/>
<path d="M146.789 45.0905L147.372 44.3478L148.852 42.7696H150.055L148.084 44.877L150.175 47.6806H148.954L147.381 45.5268L146.807 46.0003V47.6806H145.781V40.7736H146.807V44.1436L146.761 45.0905H146.789Z" fill="white"/>
<path d="M154.033 47.6807L153.82 46.9937C153.639 47.2559 153.394 47.467 153.108 47.6064C152.815 47.7286 152.499 47.7856 152.183 47.7735C151.77 47.7984 151.364 47.6582 151.054 47.3836C150.914 47.2377 150.805 47.0642 150.735 46.874C150.665 46.6839 150.635 46.4812 150.647 46.2788C150.634 46.0544 150.679 45.8303 150.778 45.6285C150.877 45.4267 151.026 45.2542 151.211 45.1277C151.731 44.8282 152.324 44.6833 152.923 44.7099H153.764V44.45C153.783 44.1965 153.707 43.9452 153.552 43.7444C153.459 43.6616 153.351 43.5984 153.233 43.5585C153.115 43.5186 152.991 43.5029 152.867 43.5123C152.622 43.5115 152.379 43.5491 152.146 43.6237C151.918 43.695 151.695 43.7819 151.479 43.8837L151.146 43.1317C151.422 42.9904 151.714 42.8844 152.016 42.816C152.319 42.7425 152.629 42.7051 152.941 42.7046C153.445 42.6672 153.945 42.8158 154.347 43.1224C154.519 43.2856 154.651 43.4856 154.734 43.7075C154.818 43.9294 154.85 44.1674 154.828 44.4036V47.7085L154.033 47.6807ZM152.479 46.9751C152.816 46.9942 153.148 46.881 153.404 46.6595C153.526 46.54 153.62 46.3947 153.679 46.2341C153.739 46.0735 153.761 45.9017 153.746 45.7311V45.3041H153.117C152.746 45.2924 152.38 45.3788 152.053 45.5547C151.943 45.6281 151.854 45.7295 151.796 45.8485C151.737 45.9676 151.711 46.1 151.72 46.2324C151.715 46.3251 151.729 46.4177 151.763 46.5042C151.797 46.5907 151.848 46.6689 151.914 46.7337C152.078 46.8676 152.286 46.9339 152.497 46.9194" fill="white"/>
<path d="M159.676 47.6806L159.528 47.0401H159.482C159.327 47.2726 159.113 47.4587 158.862 47.5785C158.572 47.7138 158.256 47.7805 157.937 47.7735C157.451 47.8064 156.973 47.6463 156.604 47.3278C156.288 46.9543 156.132 46.4704 156.17 45.9817V42.7696H157.271V45.7961C157.25 46.0958 157.332 46.3936 157.502 46.6409C157.592 46.7417 157.704 46.8201 157.829 46.8701C157.954 46.92 158.089 46.9401 158.223 46.9286C158.397 46.9376 158.57 46.9071 158.73 46.8396C158.89 46.7721 159.033 46.6693 159.149 46.5387C159.386 46.1424 159.493 45.6812 159.454 45.2205V42.7696H160.508V47.6806H159.676Z" fill="white"/>
<path d="M165.495 41.1914H164.44V47.6807H165.495V41.1914Z" fill="white"/>
<path d="M171.406 47.6807H170.361V44.6635C170.386 44.3633 170.304 44.0639 170.13 43.8187C170.041 43.7167 169.929 43.6375 169.804 43.5874C169.678 43.5374 169.543 43.518 169.408 43.5309C169.235 43.522 169.061 43.5524 168.901 43.6199C168.741 43.6874 168.598 43.7903 168.483 43.9208C168.245 44.3167 168.138 44.7783 168.178 45.2391V47.6807H167.132V42.7696H167.946L168.094 43.4102H168.15C168.305 43.1751 168.523 42.9885 168.779 42.8718C169.069 42.739 169.386 42.6754 169.704 42.6861C169.945 42.653 170.191 42.6767 170.421 42.7555C170.651 42.8342 170.86 42.9658 171.031 43.1398C171.201 43.3138 171.329 43.5253 171.404 43.7576C171.479 43.9899 171.499 44.2365 171.462 44.4778L171.406 47.6807Z" fill="white"/>
<path d="M174.506 47.7735C174.231 47.786 173.957 47.7318 173.707 47.6154C173.458 47.499 173.24 47.324 173.072 47.1051C172.703 46.5594 172.524 45.9066 172.563 45.2483C172.53 44.5894 172.712 43.9376 173.081 43.3916C173.251 43.172 173.47 42.996 173.721 42.8782C173.972 42.7604 174.247 42.7041 174.524 42.7139C174.81 42.6998 175.095 42.7589 175.353 42.8855C175.61 43.0122 175.831 43.2023 175.995 43.438C175.954 43.1612 175.929 42.8822 175.921 42.6025V40.7736H176.966V47.6806H176.152L175.977 47.0401H175.921C175.762 47.2794 175.544 47.4729 175.287 47.6016C175.031 47.7302 174.746 47.7895 174.459 47.7735H174.506ZM174.737 46.9287C174.908 46.9424 175.081 46.917 175.241 46.8542C175.401 46.7915 175.545 46.6932 175.662 46.5666C175.888 46.217 175.995 45.8034 175.967 45.3876V45.2483C176.007 44.7846 175.9 44.3202 175.662 43.9208C175.548 43.7886 175.406 43.6846 175.245 43.617C175.085 43.5493 174.911 43.5199 174.737 43.5309C174.569 43.5226 174.401 43.5605 174.253 43.6407C174.105 43.7209 173.981 43.8402 173.895 43.9858C173.676 44.3721 173.573 44.8139 173.599 45.2576C173.571 45.6915 173.671 46.1241 173.886 46.5016C173.977 46.645 174.105 46.7606 174.256 46.8359C174.408 46.9112 174.578 46.9433 174.746 46.9287" fill="white"/>
<path d="M182.85 45.2205C182.884 45.8956 182.663 46.5588 182.23 47.0772C182.011 47.3083 181.745 47.4887 181.449 47.6058C181.154 47.7229 180.836 47.7737 180.519 47.7549C180.093 47.7655 179.674 47.6561 179.307 47.4393C178.947 47.2207 178.663 46.8967 178.493 46.5109C178.301 46.0889 178.206 45.6287 178.215 45.1648C178.178 44.4923 178.393 43.8301 178.817 43.3081C179.04 43.0781 179.31 42.8994 179.609 42.784C179.907 42.6686 180.227 42.6194 180.547 42.6396C180.858 42.6238 181.169 42.6762 181.458 42.7932C181.748 42.9102 182.008 43.0891 182.221 43.3173C182.658 43.8335 182.883 44.4974 182.85 45.1741V45.2205ZM179.279 45.1741C179.279 46.3067 179.705 46.873 180.537 46.873C181.37 46.873 181.777 46.3067 181.777 45.1741C181.777 44.0415 181.361 43.4844 180.528 43.4844C180.35 43.4734 180.172 43.5075 180.01 43.5838C179.848 43.6601 179.708 43.7759 179.603 43.9208C179.385 44.3008 179.282 44.7363 179.307 45.1741" fill="white"/>
<path d="M188.345 47.6807H187.3V44.6635C187.323 44.3648 187.245 44.0671 187.078 43.8187C186.985 43.7199 186.871 43.6429 186.744 43.5931C186.618 43.5434 186.483 43.5222 186.347 43.5309C186.174 43.522 186 43.5524 185.84 43.6199C185.68 43.6874 185.537 43.7903 185.422 43.9208C185.184 44.3167 185.077 44.7783 185.117 45.2391V47.6807H184.081V42.7696H184.895L185.043 43.4102H185.024C185.179 43.1751 185.397 42.9885 185.653 42.8718C185.944 42.74 186.26 42.6764 186.578 42.6861C186.819 42.653 187.065 42.6767 187.295 42.7555C187.525 42.8342 187.734 42.9658 187.905 43.1398C188.075 43.3138 188.203 43.5253 188.278 43.7576C188.353 43.9899 188.373 44.2365 188.336 44.4778L188.345 47.6807Z" fill="white"/>
<path d="M191.935 47.7735C191.607 47.7922 191.28 47.7425 190.972 47.6274C190.665 47.5124 190.385 47.3345 190.149 47.105C189.923 46.8551 189.749 46.5618 189.637 46.2428C189.526 45.9238 189.48 45.5856 189.502 45.2483C189.473 44.5769 189.686 43.9174 190.103 43.3916C190.516 42.9652 191.077 42.7163 191.669 42.6972C192.261 42.6782 192.837 42.8905 193.276 43.2895C193.669 43.736 193.872 44.3193 193.841 44.9141V45.4897H190.575C190.564 45.8919 190.699 46.2844 190.954 46.5944C191.091 46.7244 191.252 46.8252 191.429 46.8907C191.605 46.9561 191.793 46.9848 191.981 46.9751C192.252 46.9768 192.522 46.9488 192.786 46.8915C193.062 46.8257 193.331 46.7356 193.591 46.6223V47.4671C193.346 47.584 193.088 47.6713 192.823 47.727C192.518 47.7802 192.208 47.805 191.898 47.8013L191.935 47.7735ZM191.704 43.503C191.556 43.4957 191.409 43.5201 191.272 43.5746C191.135 43.629 191.011 43.7122 190.908 43.8186C190.689 44.0788 190.565 44.4064 190.557 44.747H192.777C192.793 44.4133 192.691 44.0846 192.49 43.8186C192.388 43.7146 192.265 43.6335 192.13 43.5807C191.994 43.5279 191.849 43.5046 191.704 43.5123" fill="white"/>
<path d="M198.309 46.2881C198.32 46.5005 198.278 46.7123 198.185 46.9038C198.093 47.0953 197.954 47.2603 197.782 47.3836C197.34 47.6713 196.818 47.808 196.292 47.7735C195.752 47.7948 195.215 47.6933 194.719 47.4764V46.5481C195.222 46.7939 195.77 46.93 196.329 46.9473C196.967 46.9473 197.254 46.7523 197.254 46.3624C197.26 46.2482 197.224 46.1358 197.152 46.0468C197.05 45.9446 196.931 45.8599 196.801 45.7961C196.584 45.6772 196.358 45.5747 196.126 45.4897C195.7 45.3567 195.308 45.1318 194.978 44.8306C194.776 44.597 194.67 44.2949 194.682 43.9858C194.674 43.7915 194.717 43.5984 194.806 43.4257C194.895 43.2531 195.028 43.1069 195.191 43.0017C195.605 42.7468 196.085 42.6238 196.57 42.649C197.131 42.6476 197.687 42.768 198.198 43.0017L197.865 43.7908C197.446 43.5963 196.994 43.4859 196.533 43.4659C195.987 43.4659 195.709 43.6145 195.709 43.9301C195.71 44.0076 195.73 44.0837 195.767 44.1517C195.804 44.2197 195.858 44.2775 195.922 44.32C196.212 44.504 196.523 44.6535 196.847 44.7656C197.171 44.872 197.481 45.0153 197.772 45.1927C197.947 45.3078 198.089 45.4671 198.183 45.6545C198.277 45.8418 198.321 46.0508 198.309 46.2603" fill="white"/>
<path d="M199.373 41.4699C199.367 41.3909 199.378 41.3117 199.403 41.2367C199.428 41.1618 199.468 41.0927 199.521 41.0336C199.645 40.9372 199.798 40.8849 199.956 40.8849C200.113 40.8849 200.266 40.9372 200.39 41.0336C200.443 41.0927 200.483 41.1618 200.508 41.2367C200.534 41.3117 200.544 41.3909 200.538 41.4699C200.543 41.5459 200.532 41.6221 200.507 41.6939C200.481 41.7657 200.442 41.8316 200.39 41.8877C200.269 41.9904 200.115 42.0468 199.956 42.0468C199.797 42.0468 199.643 41.9904 199.521 41.8877C199.469 41.8316 199.43 41.7657 199.404 41.6939C199.379 41.6221 199.368 41.5459 199.373 41.4699ZM200.474 47.6806H199.428V42.7696H200.474V47.6806Z" fill="white"/>
<path d="M205.025 47.6806L204.812 46.9936C204.631 47.2559 204.386 47.4669 204.1 47.6064C203.808 47.7294 203.492 47.7864 203.175 47.7735C202.762 47.7984 202.356 47.6582 202.046 47.3836C201.906 47.2376 201.797 47.0641 201.727 46.874C201.657 46.6838 201.627 46.4812 201.639 46.2788C201.628 46.0546 201.674 45.8311 201.772 45.6297C201.871 45.4282 202.02 45.2554 202.204 45.1276C202.724 44.8296 203.317 44.6848 203.915 44.7099H204.766V44.4499C204.785 44.1948 204.706 43.9421 204.544 43.7444C204.452 43.6627 204.346 43.6002 204.23 43.5603C204.114 43.5205 203.991 43.5042 203.869 43.5123C203.624 43.5115 203.38 43.5491 203.147 43.6237C202.92 43.695 202.697 43.7819 202.481 43.8836L202.148 43.1317C202.423 42.9893 202.715 42.8832 203.018 42.816C203.32 42.7418 203.631 42.7044 203.943 42.7046C204.45 42.6658 204.953 42.8144 205.358 43.1224C205.526 43.2876 205.656 43.4882 205.738 43.7098C205.819 43.9313 205.851 44.1682 205.83 44.4035V47.7085L205.025 47.6806ZM203.471 46.9751C203.808 46.9903 204.138 46.8776 204.396 46.6594C204.517 46.5388 204.61 46.3933 204.669 46.233C204.728 46.0727 204.752 45.9015 204.738 45.7311V45.304H204.109C203.736 45.2924 203.366 45.3788 203.036 45.5547C202.926 45.6281 202.837 45.7295 202.779 45.8485C202.72 45.9675 202.694 46.1 202.703 46.2324C202.698 46.325 202.713 46.4177 202.746 46.5042C202.78 46.5906 202.831 46.6689 202.897 46.7337C203.061 46.8675 203.27 46.9339 203.48 46.9194" fill="white"/>
<path d="M372 29.9954C371.998 22.0392 368.846 14.4098 363.239 8.78487C357.632 3.15992 350.029 -3.80828e-07 342.1 0C341.656 0 341.175 0 340.759 0L334.644 16.8962H339.972C343.136 16.8962 344.848 19.3471 343.756 22.3364L336.217 43.141H329.889L337.974 20.8603H333.219L325.124 43.141H318.787L328.307 16.8962L334.033 1.11403C327.655 2.90708 322.051 6.77473 318.1 12.1099C314.149 17.4451 312.076 23.9457 312.205 30.5914C312.334 37.2371 314.658 43.6517 318.813 48.8282C322.969 54.0048 328.719 57.6502 335.162 59.1923L340.713 43.8929L350.5 16.8962H362.166C365.339 16.8962 367.041 19.3471 365.959 22.3364L359.335 40.6065C359.032 41.3261 358.533 41.945 357.895 42.3918C357.256 42.8386 356.505 43.0951 355.727 43.1317H347.327L341.212 59.9814H342.137C350.067 59.9814 357.672 56.8202 363.28 51.1933C368.887 45.5663 372.037 37.9345 372.037 29.9768" fill="white"/>
<path d="M360.186 20.8231H355.431L348.771 39.1768H353.535L360.196 20.8231" fill="white"/>
<rect x="271.2" width="2.39996" height="60" fill="white"/>
</g>
<defs>
<clipPath id="clip0_10_474">
<rect width="372" height="60" fill="white"/>
</clipPath>
</defs>
</svg>
